<svg id="master-artboard" version="1.1" xmlns="http://www.w3.org/2000/svg" x="0" y="0" width="750.577" height="690">
  <path id="ee-background" fill="#fff" fill-opacity="0" pointer-events="none" d="M0 0h750.577v690H0z"/>
  <defs>
    <radialGradient id="gradient-0" gradientUnits="objectBoundingBox" cx=".5" cy=".5" r=".5">
      <stop offset="0" stop-color="#fff"/>
      <stop offset="1" stop-color="#ccc"/>
    </radialGradient>
    <radialGradient id="gradient-1" gradientUnits="objectBoundingBox" cx=".5" cy=".5" r=".5">
      <stop offset="0" stop-color="#5784ff"/>
      <stop offset="1" stop-color="#0040f0"/>
    </radialGradient>
    <radialGradient id="gradient-2" gradientUnits="objectBoundingBox" cx=".5" cy=".5" r=".5">
      <stop offset="0" stop-color="#5784ff"/>
      <stop offset="1" stop-color="#0040f0"/>
    </radialGradient>
    <radialGradient id="gradient-3" gradientUnits="objectBoundingBox" cx=".5" cy=".5" r=".5">
      <stop offset="0" stop-color="#5784ff"/>
      <stop offset="1" stop-color="#0040f0"/>
    </radialGradient>
    <radialGradient id="gradient-4" gradientUnits="objectBoundingBox" cx=".5" cy=".5" r=".5">
      <stop offset="0" stop-color="#5784ff"/>
      <stop offset="1" stop-color="#0040f0"/>
    </radialGradient>
    <radialGradient id="gradient-5" gradientUnits="objectBoundingBox" cx=".5" cy=".5" r=".5">
      <stop offset="0" stop-color="#5784ff"/>
      <stop offset="1" stop-color="#0040f0"/>
    </radialGradient>
    <style id="ee-google-fonts">
      @import url(https://fonts.googleapis.com/css?family=Ubuntu:300,300italic,400,400italic,500,500italic,700,700italic);
    </style>
  </defs>
  <path d="M368.66 220.733v2.01h-5.24v14.62h-2.32v-14.62h-5.24v-2.01h12.8zm5.95 3.89c.193 0 .413.01.66.03.246.027.49.06.73.1.24.04.46.08.66.12.2.04.346.077.44.11l-.38 1.94a6.425 6.425 0 00-.88-.23c-.407-.086-.93-.13-1.57-.13-.414 0-.824.044-1.23.13-.414.087-.684.147-.81.18v10.49H370v-11.95a14.625 14.625 0 011.97-.54c.78-.166 1.66-.25 2.64-.25zm8.874 11.13c.533 0 1.003-.01 1.41-.03a6.077 6.077 0 001.02-.14v-3.72c-.16-.08-.42-.146-.78-.2a9.12 9.12 0 00-1.31-.08c-.334 0-.69.024-1.07.07a3.24 3.24 0 00-1.03.3c-.314.154-.574.36-.78.62-.207.267-.31.617-.31 1.05 0 .8.256 1.354.77 1.66.506.314 1.2.47 2.08.47m-.19-11.18c.9 0 1.656.117 2.27.35.613.227 1.11.554 1.49.98.373.427.64.93.8 1.51.16.587.24 1.23.24 1.93v7.8l-.8.14c-.347.054-.737.104-1.17.15-.427.047-.894.09-1.4.13-.507.04-1.007.06-1.5.06a8.36 8.36 0 01-1.94-.21 4.4 4.4 0 01-1.54-.69 3.061 3.061 0 01-1.01-1.23c-.24-.513-.36-1.13-.36-1.85 0-.686.14-1.28.42-1.78a3.39 3.39 0 011.14-1.2c.48-.3 1.04-.523 1.68-.67a9.432 9.432 0 012.71-.18c.24.027.47.06.69.1.213.04.4.077.56.11.16.027.273.05.34.07v-.63c0-.366-.04-.73-.12-1.09-.08-.36-.224-.68-.43-.96-.214-.28-.5-.503-.86-.67-.36-.166-.827-.25-1.4-.25-.734 0-1.377.05-1.93.15-.554.107-.967.217-1.24.33l-.26-1.85c.286-.126.766-.25 1.44-.37.673-.12 1.4-.18 2.18-.18zm11.397 11.18c.914 0 1.59-.12 2.03-.36.44-.24.66-.623.66-1.15 0-.546-.216-.98-.65-1.3-.426-.32-1.136-.68-2.13-1.08-.48-.186-.94-.38-1.38-.58-.44-.2-.82-.436-1.14-.71a3.124 3.124 0 01-.77-.99c-.193-.38-.29-.85-.29-1.41 0-1.106.41-1.983 1.23-2.63.814-.646 1.924-.97 3.33-.97.354 0 .707.02 1.06.06.354.04.68.087.98.14.307.06.577.12.81.18.227.067.407.124.54.17l-.41 1.92c-.24-.126-.616-.26-1.13-.4-.513-.133-1.13-.2-1.85-.2-.62 0-1.163.124-1.63.37-.466.247-.7.637-.7 1.17 0 .267.054.507.16.72.107.207.267.394.48.56.214.167.48.324.8.47.32.14.707.29 1.16.45.587.227 1.114.447 1.58.66.467.22.864.474 1.19.76.327.287.577.634.75 1.04.18.414.27.914.27 1.5 0 1.154-.43 2.027-1.29 2.62-.853.594-2.073.89-3.66.89-1.1 0-1.963-.093-2.59-.28-.62-.18-1.043-.32-1.27-.42l.41-1.92c.254.1.66.244 1.22.43.56.194 1.304.29 2.23.29zm7.804 1.61v-18.24l2.23-.38v6.38a7.815 7.815 0 012.74-.5c.994 0 1.817.14 2.47.42.654.28 1.177.67 1.57 1.17.394.507.67 1.11.83 1.81.16.707.24 1.484.24 2.33v7.01h-2.23v-6.53c0-.766-.053-1.423-.16-1.97-.1-.54-.27-.98-.51-1.32a2.064 2.064 0 00-.96-.73c-.4-.153-.896-.23-1.49-.23a5.9 5.9 0 00-.75.05c-.253.034-.496.07-.73.11-.233.04-.44.084-.62.13a3.14 3.14 0 00-.4.12v10.37h-2.23z" transform="translate(-4412.114 -2320.671) scale(12.44845)" style="white-space:pre" fill="#2c475c" color="#333"/>
  <path class="st2" d="M1104.9 878.2s5.2 23.5 31.7 23.5h120.2c26.6 0 31.8-23.5 31.8-23.5l23.7-230.8h-231.2l23.8 230.8zM1313.2 601.4l-224 33.7c-8.2 1.2-15.8-4.4-17.1-12.6-1.2-8.2 4.4-15.8 12.6-17.1l224-33.7c8.2-1.2 15.8 4.4 17.1 12.6 1.2 8.2-4.4 15.8-12.6 17.1z" fill-rule="evenodd" clip-rule="evenodd" fill="#2c475c" transform="translate(-955.759 -579.077) scale(1.11876)"/>
  <path class="st2" d="M1226.6 590.2l-57.8 8.7c-9.8 1.5-19-5.3-20.5-15.1s5.3-19 15.1-20.5l57.8-8.7c9.8-1.5 19 5.3 20.5 15.1 1.4 9.8-5.4 19-15.1 20.5z" fill-rule="evenodd" clip-rule="evenodd" fill="#2c475c" transform="translate(-955.759 -579.077) scale(1.11876)"/>
  <path class="st3" d="M1215.9 584.7l-38.6 5.8c-4.4.7-8.5-2.4-9.1-6.8-.7-4.4 2.4-8.5 6.8-9.1l38.6-5.8c4.4-.7 8.5 2.4 9.1 6.8.6 4.4-2.4 8.5-6.8 9.1z" fill-rule="evenodd" clip-rule="evenodd" fill="#2c475c" transform="translate(-955.759 -579.077) scale(1.11876)"/>
  <path class="st0" d="M1175.6 771.9l6.9 4.1-9-17.9-20.2.6 6.5 3.9-8.9 16.4s7.1 12.9 12 20.7c2 3.2 4.6 4.9 7.2 4.9h26v-18.7h-28.2l7.7-14zm0 0M1199.5 750.8l19.7 1.2 9.5-17.9-6.6 3.8-9.9-15.8s-14.8-.2-23.9.3c-3.7.2-6.6 1.6-7.8 3.8l-12.8 22.6 16.3 9.2 13.9-24.6 8.3 13.6-6.7 3.8zm0 0M1241.8 773.6l-12.4-22.9-16.5 8.9 13.4 24.8-15.9-.2.2-7.2-11.4 15.7 10.2 17.5.3-7.6h18.7s8-12.4 12.5-20.4c1.9-3.1 2.1-6.3.9-8.6zm0 0" fill="#2c475c" transform="translate(-955.759 -579.077) scale(1.11876)"/>
</svg>
